<svg width="48" height="32" viewBox="0 0 48 32" fill="none" xmlns="http://www.w3.org/2000/svg">
<path d="M18.4243 0L0 32H5.78512L18.6225 9.83852L24.4005 20.1337L27.3491 15.4445L18.4243 0Z" fill="#FF4040"/>
<path d="M33.0466 6.38071L30.1035 11.0611L30.6362 11.9803L38.9099 25.9359H33.4109L27.3491 15.4445L24.4005 20.1337L31.0609 32H48L33.0466 6.38071Z" fill="black"/>
<path d="M47.9609 31.9775H31.0732L24.4258 20.1338L27.3477 15.4863L33.3916 25.9473L33.3984 25.958H38.9482L38.9287 25.9248L30.6543 11.9688L30.1289 11.0605L33.0459 6.42285L47.9609 31.9775ZM27.3232 15.4434L24.4014 20.0898L18.6416 9.82812L18.623 9.79395L18.6035 9.82715L5.77246 31.9775H0.0390625L18.4238 0.0429688L27.3232 15.4434Z" stroke="black" stroke-width="0.0441267"/>
</svg>
